<svg width="80" height="80" viewBox="0 0 80 80" fill="none" xmlns="http://www.w3.org/2000/svg">
<rect width="24" height="6" transform="matrix(1 0 0 -1 8 29)" fill="#EEEBEA"/>
<rect width="24" height="6" transform="matrix(1 0 0 -1 8 75)" fill="#EEEBEA"/>
<rect width="24" height="6" transform="matrix(1 0 0 -1 48 29)" fill="#EEEBEA"/>
<rect width="24" height="6" transform="matrix(1 0 0 -1 48 75)" fill="#EEEBEA"/>
<circle cx="20" cy="58" r="4" stroke="#0D0E10" stroke-width="2"/>
<circle cx="19" cy="12" r="4" stroke="#0D0E10" stroke-width="2"/>
<circle cx="60" cy="12" r="4" stroke="#0D0E10" stroke-width="2"/>
<circle cx="60" cy="58" r="4" stroke="#0D0E10" stroke-width="2"/>
<path d="M28 72C28 68.134 24.6421 65 20.5 65C16.3579 65 13 68.134 13 72" stroke="#0D0E10" stroke-width="2"/>
<path d="M27 26C27 22.134 23.6421 19 19.5 19C15.3579 19 12 22.134 12 26" stroke="#0D0E10" stroke-width="2"/>
<path d="M68 26C68 22.134 64.6421 19 60.5 19C56.3579 19 53 22.134 53 26" stroke="#0D0E10" stroke-width="2"/>
<path d="M68 72C68 68.134 64.6421 65 60.5 65C56.3579 65 53 68.134 53 72" stroke="#0D0E10" stroke-width="2"/>
<g style="mix-blend-mode:multiply">
<circle cx="40" cy="45" r="15" fill="#938CE1"/>
</g>
</svg>
