<svg width="80" height="80" viewBox="0 0 80 80" fill="none" xmlns="http://www.w3.org/2000/svg">
<circle cx="33.3105" cy="35.3105" r="29.3105" fill="#EEEBEA"/>
<path fill-rule="evenodd" clip-rule="evenodd" d="M62.6209 36.9695C61.7334 39.225 57.615 44.1589 48.2422 45.8505C48.2417 66.5728 55.6978 71.6476 62.6209 74.1851V36.9695ZM62.621 36.9695C63.5086 39.225 67.6269 44.1589 76.9997 45.8505C77.0002 66.5728 69.5441 71.6476 62.621 74.1851V36.9695Z" fill="#4573D2"/>
<path d="M38.171 30.7881C36.7256 29.1731 34.625 28.1567 32.2871 28.1567C27.9273 28.1567 24.3931 31.691 24.3931 36.0508C24.3931 38.3887 25.4094 40.4893 27.0244 41.9347" stroke="#0D0E10" stroke-width="2" stroke-linecap="round"/>
<path d="M54.6532 36.0507C54.6532 36.0507 44.6394 47.8918 32.2868 47.8918C19.9342 47.8918 9.92041 36.0507 9.92041 36.0507C9.92041 36.0507 19.9342 24.2097 32.2868 24.2097C44.6394 24.2097 54.6532 36.0507 54.6532 36.0507Z" stroke="#0D0E10" stroke-width="2" stroke-linecap="round"/>
<path d="M54.0005 14L12.0005 56" stroke="#0D0E10" stroke-width="2"/>
</svg>
